/* XPM */
static char * icon_xpm[] = {
"32 32 17 1",
" 	c None",
".	c #4C9899",
"+	c #B347B1",
"@	c #73E4E6",
"#	c #FF66FD",
"$	c #00E3E6",
"%	c #FF00FC",
"&	c #009799",
"*	c #B300B0",
"=	c #B34747",
"-	c #46B046",
";	c #FF6666",
">	c #66FF66",
",	c #FF0000",
"'	c #00FF00",
")	c #B30000",
"!	c #00B300",
"  ............    ++++++++++++  ",
" .@@@@@@@@@@@@.  +############+ ",
".$$$$$$$$$$$$$$.+%%%%%%%%%%%%%%+",
"&$$$$$$$$$$$$$$&*%%%%%%%%%%%%%%*",
"&$$$$$$$$$$$$$$&*%%%%%%%%%%%%%%*",
"&$$$$$$$$$$$$$$&*%%%%%%%%%%%%%%*",
"&$$$$$$$$$$$$$$&*%%%%%%%%%%%%%%*",
"&$$$$$$$$$$$$$$&*%%%%%%%%%%%%%%*",
"&$$$$$$$$$$$$$$&*%%%%%%%%%%%%%%*",
"&$$$$$$$$$$$$$$&*%%%%%%%%%%%%%%*",
"&$$$$$$$$$$$$$$&*%%%%%%%%%%%%%%*",
"&$$$$$$$$$$$$$$&*%%%%%%%%%%%%%%*",
"&$$$$$$$$$$$$$$&*%%%%%%%%%%%%%%*",
"&$$$$$$$$$$$$$$&*%%%%%%%%%%%%%%*",
" &$$$$$$$$$$$$&  *%%%%%%%%%%%%* ",
"  &&&&&&&&&&&&    ************  ",
"  ============    ------------  ",
" =;;;;;;;;;;;;=  ->>>>>>>>>>>>- ",
"=,,,,,,,,,,,,,,=-''''''''''''''-",
"),,,,,,,,,,,,,,)!''''''''''''''!",
"),,,,,,,,,,,,,,)!''''''''''''''!",
"),,,,,,,,,,,,,,)!''''''''''''''!",
"),,,,,,,,,,,,,,)!''''''''''''''!",
"),,,,,,,,,,,,,,)!''''''''''''''!",
"),,,,,,,,,,,,,,)!''''''''''''''!",
"),,,,,,,,,,,,,,)!''''''''''''''!",
"),,,,,,,,,,,,,,)!''''''''''''''!",
"),,,,,,,,,,,,,,)!''''''''''''''!",
"),,,,,,,,,,,,,,)!''''''''''''''!",
"),,,,,,,,,,,,,,)!''''''''''''''!",
" ),,,,,,,,,,,,)  !''''''''''''! ",
"  ))))))))))))    !!!!!!!!!!!!  "};
